<svg xmlns="http://www.w3.org/2000/svg" xmlns:svg="http://www.w3.org/2000/svg" id="svg8" width="256" height="349" version="1.1" viewBox="0 0 67.733 92.34"><metadata id="metadata5"/><g id="layer1" transform="translate(-18.258489,-197.57586)" style="display:inline;opacity:1"><rect style="fill:#43c78a;fill-opacity:1;stroke-width:.59206897" id="rect5271" width="53.824" height="86.702" x="21.672" y="200.306"/><path style="opacity:1;fill:#1b1b1b;fill-opacity:1;stroke-width:.27632937" id="path4603" d="m 21.002559,198.93836 c -1.187107,0.81376 -2.029467,1.83832 -2.346913,2.8619 -0.317444,1.02357 -0.392607,2.68855 -0.392607,3.2334 0,0.75373 0.0011,29.24225 0,39.28091 -0.0011,10.03866 0.0111,37.8597 0,38.9905 -0.0083,0.84694 0.04277,1.35687 0.165282,1.9358 0.539014,1.84219 0.945153,2.45478 1.416333,3.01381 0.471179,0.559 1.833557,1.60149 3.316129,1.65467 1.482571,0.0532 18.310979,-0.004 29.662941,0 16.524798,0.009 24.515443,0 28.297717,0 1.216646,0 2.53849,-0.60096 3.352791,-1.4327 0.814323,-0.83173 1.08729,-1.20848 1.337407,-3.23578 0.07483,-0.60634 0.208575,-1.35378 0.211528,-1.9358 v -25.81098 c 0,0 -0.909589,-0.67068 -1.565086,-1.22271 -0.655502,-0.55202 -1.509123,-1.44806 -2.164676,-2.22605 -0.655549,-0.77798 -0.745895,-1.28457 -0.686179,-3.68433 0.09339,-3.7531 -0.350825,-4.40644 3.067438,-4.32957 1.202971,0.0271 1.348503,-0.56385 1.348503,-1.06255 v -7.76944 l -3.577606,-3.55467 c -2.018828,-1.95524 -4.249177,-3.92498 -4.479535,-4.37708 -0.198421,-0.38942 0.01903,-1.62039 -0.0359,-3.41744 -0.05494,-1.79707 0,-19.56123 0,-20.81659 0,-1.25536 0.01941,-2.42826 -0.321332,-3.2334 -0.340734,-0.80519 -1.095175,-2.23286 -2.133051,-2.8619 -1.037874,-0.62906 -5.011239,-1.35622 -6.737592,-1.35622 H 48.608237 27.605391 c -1.971264,0 -5.415725,0.54242 -6.602832,1.35622 z m 47.335366,7.38598 c 0.526155,0 1.857724,5.41816 1.824213,5.5524 -0.03354,0.13413 -1.091429,0 -1.824213,0 -0.732777,0 -1.742898,0.14283 -1.824205,0 -0.08132,-0.14283 1.298058,-5.5524 1.824205,-5.5524 z m 2.480074,26.97569 c 0.639913,0 2.541837,0.63846 3.046208,1.02249 0.229151,0.17465 0.219343,0.20275 -0.272889,0.78726 -0.672828,0.79888 -1.511061,2.60483 -2.717814,5.85804 -0.7951,2.14348 -2.990702,8.60061 -2.990702,8.79495 0,0.0261 0.542033,0.0481 1.204424,0.0481 1.756984,1.1e-4 2.253433,0.36375 2.253433,1.64767 v 0.58442 l -1.265478,-0.0454 c -0.900722,-0.0324 -1.938763,0.047 -3.595686,0.27508 -2.633988,0.36298 -3.111691,0.37795 -3.938886,0.12325 -0.537005,-0.16527 -1.452338,-0.89283 -1.452338,-1.15402 0,-0.13326 1.557638,-0.55242 3.057307,-0.82338 l 1.14152,-0.20664 0.116547,-0.44827 c 0.06412,-0.24649 0.207498,-0.81008 0.318218,-1.25219 0.4285,-1.7109 1.940777,-6.8347 2.585528,-8.76066 0.542302,-1.61994 0.634436,-2.00561 0.465303,-1.94218 -0.424414,0.15918 -1.52526,0.87625 -2.323737,1.51336 -0.450458,0.35942 -0.867819,0.62248 -0.927831,0.58534 -0.257562,-0.15939 -0.07371,-0.70563 0.463452,-1.37723 0.314949,-0.39375 1.361254,-1.5227 2.325589,-2.509 0.964342,-0.98626 1.878481,-2.002 2.031422,-2.25709 0.152955,-0.25505 0.367391,-0.464 0.476401,-0.464 z m -46.690309,0.69463 h 15.695414 c 2.103406,0 3.796424,1.69505 3.796424,3.80101 H 25.956525 Z m 25.479723,0 h 9.564144 v 3.80101 H 45.81006 c 0,-2.10597 1.693943,-3.80101 3.797353,-3.80101 z m -23.650888,6.13869 h 3.796427 v 11.59383 h -3.796427 z m 6.933287,0 h 3.796428 v 11.59383 h -3.796428 z m 6.933292,0 h 3.796424 v 11.59383 h -3.796424 z m 5.986956,0 h 3.797353 v 6.423 c 0,0.80491 0.412069,1.36982 1.371855,1.36982 h 8.192289 v 3.80101 h -9.564144 c -2.103414,0 -3.797353,-1.69507 -3.797353,-3.80101 z"/><path style="fill:none;fill-opacity:1;stroke:#000;stroke-width:1.44431341;stroke-linecap:round;stroke-linejoin:miter;stroke-miterlimit:4;stroke-dasharray:none;stroke-opacity:1" id="path828" d="m 19.18193,282.88417 c 0,0 17.300839,-3.33656 32.951696,-3.09554 15.650858,0.24102 32.951498,3.09554 32.951498,3.09554"/></g></svg>